<svg width="19" height="24" viewBox="0 0 19 24" fill="none" xmlns="http://www.w3.org/2000/svg">
<path d="M16.1227 9.50391H3.06422C2.26289 9.50391 1.61328 10.1535 1.61328 10.9548V21.1114C1.61328 21.9128 2.26289 22.5624 3.06422 22.5624H16.1227C16.924 22.5624 17.5736 21.9128 17.5736 21.1114V10.9548C17.5736 10.1535 16.924 9.50391 16.1227 9.50391Z" stroke="#A0A3BD" stroke-width="1.5" stroke-linecap="round" stroke-linejoin="round"/>
<path d="M4.51318 9.5035V5.87615C4.51318 4.5293 5.04822 3.23761 6.00058 2.28525C6.95295 1.33288 8.24463 0.797852 9.59148 0.797852C10.9383 0.797852 12.23 1.33288 13.1824 2.28525C14.1347 3.23761 14.6698 4.5293 14.6698 5.87615V9.5035" stroke="#A0A3BD" stroke-width="1.5" stroke-linecap="round" stroke-linejoin="round"/>
</svg>
