<svg width="19" height="20" viewBox="0 0 19 20" fill="none" xmlns="http://www.w3.org/2000/svg">
<path d="M4.53288 12.1365L3.1662 18.0544C3.12388 18.2336 3.13658 18.4214 3.20265 18.5933C3.26872 18.7652 3.38509 18.9131 3.53655 19.0178C3.68801 19.1225 3.86753 19.1791 4.05165 19.1802C4.23578 19.1813 4.41596 19.1269 4.56865 19.024L9.56299 15.6944L14.5573 19.024C14.7136 19.1277 14.8978 19.1811 15.0853 19.177C15.2728 19.1729 15.4546 19.1114 15.6061 19.001C15.7576 18.8905 15.8717 18.7362 15.933 18.559C15.9942 18.3817 15.9997 18.19 15.9488 18.0095L14.2712 12.1392L18.4317 8.39506C18.565 8.27507 18.6601 8.11866 18.7054 7.94516C18.7507 7.77167 18.7442 7.5887 18.6866 7.41888C18.629 7.24907 18.523 7.09985 18.3815 6.98969C18.24 6.87953 18.0693 6.81326 17.8906 6.79907L12.6614 6.38264L10.3986 1.37363C10.3264 1.21234 10.2091 1.07538 10.0609 0.979272C9.9126 0.883169 9.73968 0.832031 9.56299 0.832031C9.3863 0.832031 9.21338 0.883169 9.06511 0.979272C8.91683 1.07538 8.79954 1.21234 8.72739 1.37363L6.46457 6.38264L1.23542 6.79815C1.05973 6.81207 0.891769 6.87631 0.751631 6.98319C0.611493 7.09006 0.505113 7.23505 0.445218 7.4008C0.385323 7.56655 0.374449 7.74605 0.413896 7.91782C0.453344 8.08959 0.541443 8.24636 0.667654 8.36937L4.53288 12.1365ZM7.14975 8.1685C7.31347 8.1556 7.47071 8.0989 7.60497 8.00433C7.73924 7.90976 7.8456 7.78081 7.91289 7.631L9.56299 3.97949L11.2131 7.631C11.2804 7.78081 11.3867 7.90976 11.521 8.00433C11.6553 8.0989 11.8125 8.1556 11.9762 8.1685L15.6195 8.45743L12.6192 11.1578C12.3587 11.3926 12.2551 11.754 12.3505 12.0915L13.4998 16.1136L10.073 13.8287C9.92256 13.7278 9.74551 13.6739 9.56437 13.6739C9.38322 13.6739 9.20617 13.7278 9.05576 13.8287L5.47488 16.2163L6.43797 12.0466C6.47329 11.8932 6.46855 11.7333 6.42421 11.5823C6.37988 11.4313 6.29744 11.2943 6.18482 11.1844L3.39826 8.46752L7.14975 8.1685Z" fill="#F3CD03"/>
</svg>
