<svg width="19" height="20" viewBox="0 0 19 20" fill="none" xmlns="http://www.w3.org/2000/svg">
<path d="M18.632 7.41866C18.5744 7.24885 18.4683 7.09964 18.3268 6.98945C18.1853 6.87926 18.0146 6.81292 17.8359 6.79861L12.6067 6.3831L10.3439 1.37409C10.2718 1.21276 10.1546 1.07573 10.0064 0.979546C9.85818 0.883361 9.68529 0.832128 9.5086 0.832031C9.33191 0.831934 9.15896 0.882977 9.01064 0.978999C8.86231 1.07502 8.74494 1.21192 8.6727 1.37317L6.40989 6.3831L1.18073 6.79861C1.00504 6.81253 0.837081 6.87677 0.696944 6.98364C0.556806 7.09052 0.450426 7.23551 0.390531 7.40126C0.330636 7.56701 0.319761 7.74651 0.359209 7.91828C0.398656 8.09005 0.486756 8.24682 0.612966 8.36983L4.47727 12.1369L3.11059 18.0549C3.0691 18.234 3.0824 18.4215 3.14877 18.593C3.21514 18.7645 3.33152 18.9121 3.48281 19.0166C3.6341 19.1211 3.81331 19.1777 3.99718 19.1791C4.18105 19.1805 4.3611 19.1266 4.51396 19.0244L9.5083 15.6949L14.5026 19.0244C14.6589 19.1282 14.8431 19.1816 15.0306 19.1774C15.2181 19.1733 15.3999 19.1119 15.5514 19.0014C15.7029 18.8909 15.817 18.7367 15.8783 18.5595C15.9395 18.3822 15.9451 18.1904 15.8941 18.01L14.2165 12.1397L18.377 8.39551C18.6495 8.1497 18.7494 7.76629 18.632 7.41866Z" fill="#F3CD03"/>
</svg>
