<svg width="46" height="40" viewBox="0 0 46 40" fill="none" xmlns="http://www.w3.org/2000/svg">
<g clip-path="url(#clip0_757_3843)">
<path d="M19.167 31.6659V23.3326H26.8336V31.6659C26.8336 32.5826 27.6961 33.3326 28.7503 33.3326H34.5003C35.5545 33.3326 36.417 32.5826 36.417 31.6659V19.9992H39.6753C40.557 19.9992 40.9786 19.0492 40.3078 18.5492L24.2845 5.99922C23.5561 5.43255 22.4445 5.43255 21.7161 5.99922L5.69281 18.5492C5.04114 19.0492 5.44364 19.9992 6.32531 19.9992H9.58364V31.6659C9.58364 32.5826 10.4461 33.3326 11.5003 33.3326H17.2503C18.3045 33.3326 19.167 32.5826 19.167 31.6659Z" fill="#979797"/>
</g>
<defs>
<clipPath id="clip0_757_3843">
<rect width="46" height="40" fill="white"/>
</clipPath>
</defs>
</svg>
