<svg width="20" height="20" viewBox="0 0 20 20" fill="none" xmlns="http://www.w3.org/2000/svg">
<path d="M18.1634 16.8369L14.4533 13.1251C15.5657 11.6755 16.085 9.85701 15.906 8.03853C15.7269 6.22005 14.8629 4.53777 13.4891 3.33294C12.1153 2.12811 10.3346 1.49096 8.50834 1.55073C6.68205 1.6105 4.94687 2.36272 3.65479 3.65479C2.36272 4.94687 1.6105 6.68205 1.55073 8.50834C1.49096 10.3346 2.12811 12.1153 3.33294 13.4891C4.53777 14.8629 6.22005 15.7269 8.03853 15.906C9.85701 16.085 11.6755 15.5657 13.1251 14.4533L16.8384 18.1673C16.9256 18.2545 17.0292 18.3237 17.1431 18.3709C17.257 18.4181 17.3792 18.4424 17.5025 18.4424C17.6258 18.4424 17.7479 18.4181 17.8619 18.3709C17.9758 18.3237 18.0793 18.2545 18.1665 18.1673C18.2537 18.0801 18.3229 17.9766 18.3701 17.8626C18.4173 17.7487 18.4416 17.6266 18.4416 17.5033C18.4416 17.3799 18.4173 17.2578 18.3701 17.1439C18.3229 17.0299 18.2537 16.9264 18.1665 16.8392L18.1634 16.8369ZM3.43764 8.75014C3.43764 7.69942 3.74921 6.67231 4.33295 5.79867C4.9167 4.92503 5.7464 4.24412 6.71713 3.84203C7.68786 3.43994 8.75603 3.33473 9.78656 3.53972C10.8171 3.7447 11.7637 4.25067 12.5066 4.99363C13.2496 5.7366 13.7556 6.6832 13.9606 7.71372C14.1655 8.74424 14.0603 9.81241 13.6582 10.7831C13.2562 11.7539 12.5752 12.5836 11.7016 13.1673C10.828 13.7511 9.80085 14.0626 8.75014 14.0626C7.34162 14.0612 5.9912 13.501 4.99523 12.505C3.99926 11.5091 3.43908 10.1587 3.43764 8.75014Z" fill="#475569"/>
</svg>
