<svg width="73" height="73" viewBox="0 0 73 73" fill="none" xmlns="http://www.w3.org/2000/svg">
<g filter="url(#filter0_d_558_3278)">
<g clip-path="url(#clip0_558_3278)">
<rect x="4.33203" y="4.14062" width="64" height="64" rx="32" fill="white" fill-opacity="0.01" shape-rendering="crispEdges"/>
<g clip-path="url(#clip1_558_3278)">
<g clip-path="url(#clip2_558_3278)">
<g clip-path="url(#clip3_558_3278)">
<path d="M68.332 36.1406C68.332 18.4675 54.0051 4.14062 36.332 4.14062C18.6589 4.14062 4.33203 18.4675 4.33203 36.1406C4.33203 53.8137 18.6589 68.1406 36.332 68.1406C54.0051 68.1406 68.332 53.8137 68.332 36.1406Z" fill="black"/>
<path d="M38.3203 24.6133H55.016H38.3203Z" fill="#D5D5FF"/>
<path d="M38.3203 24.6133H55.016" stroke="black" stroke-width="2.28571" stroke-linecap="round" stroke-linejoin="round"/>
<path d="M38.3203 17.457H55.016Z" fill="#D5D5FF"/>
<path d="M38.3203 17.457H55.016" stroke="black" stroke-width="2.28571" stroke-linecap="round" stroke-linejoin="round"/>
<path d="M38.3203 31.7695H55.016H38.3203Z" fill="#D5D5FF"/>
<path d="M38.3203 31.7695H55.016" stroke="black" stroke-width="2.28571" stroke-linecap="round" stroke-linejoin="round"/>
<path d="M16.8555 39.7188H55.812H16.8555Z" fill="#D5D5FF"/>
<path d="M16.8555 39.7188H55.812" stroke="black" stroke-width="2.28571" stroke-linecap="round" stroke-linejoin="round"/>
<path d="M16.8555 46.875H55.812H16.8555Z" fill="#D5D5FF"/>
<path d="M16.8555 46.875H55.812" stroke="black" stroke-width="2.28571" stroke-linecap="round" stroke-linejoin="round"/>
<path d="M16.8555 54.8242H45.4766H16.8555Z" fill="#D5D5FF"/>
<path d="M16.8555 54.8242H45.4766" stroke="black" stroke-width="2.28571" stroke-linecap="round" stroke-linejoin="round"/>
<path fill-rule="evenodd" clip-rule="evenodd" d="M16.8555 20.0792C16.8555 18.6318 17.9816 17.457 19.3731 17.457H29.4435C30.8332 17.457 31.9611 18.6318 31.9611 20.0792V29.9405C31.9611 31.3879 30.8332 32.5626 29.4435 32.5626H19.3731C17.9816 32.5626 16.8555 31.3879 16.8555 29.9405V20.0792Z" fill="white" stroke="black" stroke-width="2.28571" stroke-linecap="round" stroke-linejoin="round"/>
</g>
</g>
</g>
</g>
</g>
<defs>
<filter id="filter0_d_558_3278" x="0.332031" y="0.140625" width="72" height="72" filterUnits="userSpaceOnUse" color-interpolation-filters="sRGB">
<feFlood flood-opacity="0" result="BackgroundImageFix"/>
<feColorMatrix in="SourceAlpha" type="matrix" values="0 0 0 0 0 0 0 0 0 0 0 0 0 0 0 0 0 0 127 0" result="hardAlpha"/>
<feMorphology radius="4" operator="dilate" in="SourceAlpha" result="effect1_dropShadow_558_3278"/>
<feOffset/>
<feComposite in2="hardAlpha" operator="out"/>
<feColorMatrix type="matrix" values="0 0 0 0 1 0 0 0 0 1 0 0 0 0 1 0 0 0 1 0"/>
<feBlend mode="normal" in2="BackgroundImageFix" result="effect1_dropShadow_558_3278"/>
<feBlend mode="normal" in="SourceGraphic" in2="effect1_dropShadow_558_3278" result="shape"/>
</filter>
<clipPath id="clip0_558_3278">
<rect x="4.33203" y="4.14062" width="64" height="64" rx="32" fill="white"/>
</clipPath>
<clipPath id="clip1_558_3278">
<rect width="64" height="64" fill="white" transform="translate(4.33203 4.14062)"/>
</clipPath>
<clipPath id="clip2_558_3278">
<rect width="64" height="64" fill="white" transform="translate(4.33203 4.14062)"/>
</clipPath>
<clipPath id="clip3_558_3278">
<rect width="64" height="64" fill="white" transform="translate(4.33203 4.14062)"/>
</clipPath>
</defs>
</svg>
