<svg width="73" height="73" viewBox="0 0 73 73" fill="none" xmlns="http://www.w3.org/2000/svg">
<g filter="url(#filter0_d_558_3181)">
<g clip-path="url(#clip0_558_3181)">
<rect x="4.97656" y="4.35938" width="64" height="64" rx="32" fill="white" fill-opacity="0.01" shape-rendering="crispEdges"/>
<g clip-path="url(#clip1_558_3181)">
<g clip-path="url(#clip2_558_3181)">
<g clip-path="url(#clip3_558_3181)">
<path d="M36.9766 4.35938C54.6908 4.35938 68.9766 18.6451 68.9766 36.3594C68.9766 54.0737 54.6908 68.3594 36.9766 68.3594C19.2623 68.3594 4.97656 54.0737 4.97656 36.3594C4.97656 18.6451 19.2623 4.35938 36.9766 4.35938Z" fill="#FFD6B0"/>
<path fill-rule="evenodd" clip-rule="evenodd" d="M48.063 41.9592H25.663C23.1487 41.9592 20.863 40.2449 20.2916 37.7306L17.5487 26.9877C17.4345 26.5306 17.5487 26.0734 17.7773 25.8449C18.0059 25.502 18.463 25.2734 18.9202 25.2734H50.9202" fill="white"/>
<path d="M48.063 41.9592H25.663C23.1487 41.9592 20.863 40.2449 20.2916 37.7306L17.5487 26.9877C17.4345 26.5306 17.5487 26.0734 17.7773 25.8449C18.0059 25.502 18.463 25.2734 18.9202 25.2734H50.9202L48.063 41.9592Z" fill="white" stroke="#191919" stroke-width="2.28571" stroke-linecap="round" stroke-linejoin="round"/>
<path d="M25.8906 50.3011H44.2906C45.6621 50.3011 46.8049 49.2725 47.0335 48.0154L51.8335 19.2154C52.0621 17.844 53.2049 16.9297 54.5763 16.9297H56.4049" stroke="#191919" stroke-width="2.28571" stroke-linecap="round" stroke-linejoin="round"/>
<path d="M29.3185 54.418C29.6614 54.418 30.0042 54.7608 30.0042 55.1037C30.0042 55.4465 29.6614 55.7894 29.3185 55.7894C28.9757 55.7894 28.6328 55.4465 28.6328 55.1037C28.6328 54.7608 28.9757 54.418 29.3185 54.418Z" fill="#FFD6B0" stroke="#191919" stroke-width="2.28571" stroke-linecap="round" stroke-linejoin="round"/>
<path d="M43.2638 54.418C43.6067 54.418 43.9496 54.7608 43.9496 55.1037C43.9496 55.4465 43.6067 55.7894 43.2638 55.7894C42.921 55.7894 42.5781 55.4465 42.5781 55.1037C42.5781 54.7608 42.8067 54.418 43.2638 54.418Z" fill="#FFD6B0" stroke="#191919" stroke-width="2.28571" stroke-linecap="round" stroke-linejoin="round"/>
<path d="M25.8906 30.7578V34.9864V30.7578Z" fill="#FFD6B0"/>
<path d="M25.8906 30.7578V34.9864" stroke="#191919" stroke-width="2.28571" stroke-linecap="round" stroke-linejoin="round"/>
<path d="M34.2344 30.7578V34.9864V30.7578Z" fill="#FFD6B0"/>
<path d="M34.2344 30.7578V34.9864" stroke="#191919" stroke-width="2.28571" stroke-linecap="round" stroke-linejoin="round"/>
<path d="M42.5781 30.7578V34.9864V30.7578Z" fill="#FFD6B0"/>
<path d="M42.5781 30.7578V34.9864" stroke="#191919" stroke-width="2.28571" stroke-linecap="round" stroke-linejoin="round"/>
</g>
</g>
</g>
</g>
</g>
<defs>
<filter id="filter0_d_558_3181" x="0.976562" y="0.359375" width="72" height="72" filterUnits="userSpaceOnUse" color-interpolation-filters="sRGB">
<feFlood flood-opacity="0" result="BackgroundImageFix"/>
<feColorMatrix in="SourceAlpha" type="matrix" values="0 0 0 0 0 0 0 0 0 0 0 0 0 0 0 0 0 0 127 0" result="hardAlpha"/>
<feMorphology radius="4" operator="dilate" in="SourceAlpha" result="effect1_dropShadow_558_3181"/>
<feOffset/>
<feComposite in2="hardAlpha" operator="out"/>
<feColorMatrix type="matrix" values="0 0 0 0 1 0 0 0 0 1 0 0 0 0 1 0 0 0 1 0"/>
<feBlend mode="normal" in2="BackgroundImageFix" result="effect1_dropShadow_558_3181"/>
<feBlend mode="normal" in="SourceGraphic" in2="effect1_dropShadow_558_3181" result="shape"/>
</filter>
<clipPath id="clip0_558_3181">
<rect x="4.97656" y="4.35938" width="64" height="64" rx="32" fill="white"/>
</clipPath>
<clipPath id="clip1_558_3181">
<rect width="64" height="64" fill="white" transform="translate(4.97656 4.35938)"/>
</clipPath>
<clipPath id="clip2_558_3181">
<rect width="64" height="64" fill="white" transform="translate(4.97656 4.35938)"/>
</clipPath>
<clipPath id="clip3_558_3181">
<rect width="64" height="64" fill="white" transform="translate(4.97656 4.35938)"/>
</clipPath>
</defs>
</svg>
