<svg width="73" height="73" viewBox="0 0 73 73" fill="none" xmlns="http://www.w3.org/2000/svg">
<g filter="url(#filter0_d_558_3161)">
<g clip-path="url(#clip0_558_3161)">
<rect x="4.66016" y="4.35938" width="64" height="64" rx="32" fill="white" fill-opacity="0.01" shape-rendering="crispEdges"/>
<g clip-path="url(#clip1_558_3161)">
<g clip-path="url(#clip2_558_3161)">
<g clip-path="url(#clip3_558_3161)">
<path d="M36.6602 4.35938C54.3744 4.35938 68.6602 18.6451 68.6602 36.3594C68.6602 54.0737 54.3744 68.3594 36.6602 68.3594C18.9459 68.3594 4.66016 54.0737 4.66016 36.3594C4.66016 18.6451 18.9459 4.35938 36.6602 4.35938Z" fill="#D5D5FF"/>
<path d="M38.375 40.2461V53.8461L42.375 46.989L46.375 53.8461V40.2461" stroke="#191919" stroke-width="2.28571" stroke-linecap="round" stroke-linejoin="round"/>
<path d="M51.9727 53.8461V40.2461" stroke="#191919" stroke-width="2.28571" stroke-linecap="round" stroke-linejoin="round"/>
<path d="M51.9727 40.2461H53.2298C55.4012 40.2461 57.2298 42.0747 57.2298 44.2461C57.2298 46.4175 55.4012 48.4747 53.2298 48.4747H51.9727" stroke="#191919" stroke-width="2.28571" stroke-linecap="round" stroke-linejoin="round"/>
<path d="M54.9464 33.5022V28.3594M18.375 28.3594V52.0165C18.375 53.3879 19.6321 54.6451 21.0036 54.6451H31.7464" stroke="#191919" stroke-width="2.28571" stroke-linecap="round" stroke-linejoin="round"/>
<path d="M18.375 21.5006C18.375 20.2434 19.4036 19.2148 20.6607 19.2148H52.6607C53.9179 19.2148 54.9464 20.2434 54.9464 21.5006V27.2148H18.375V21.5006Z" fill="white" stroke="#191919" stroke-width="2.28571"/>
</g>
</g>
</g>
</g>
</g>
<defs>
<filter id="filter0_d_558_3161" x="0.660156" y="0.359375" width="72" height="72" filterUnits="userSpaceOnUse" color-interpolation-filters="sRGB">
<feFlood flood-opacity="0" result="BackgroundImageFix"/>
<feColorMatrix in="SourceAlpha" type="matrix" values="0 0 0 0 0 0 0 0 0 0 0 0 0 0 0 0 0 0 127 0" result="hardAlpha"/>
<feMorphology radius="4" operator="dilate" in="SourceAlpha" result="effect1_dropShadow_558_3161"/>
<feOffset/>
<feComposite in2="hardAlpha" operator="out"/>
<feColorMatrix type="matrix" values="0 0 0 0 1 0 0 0 0 1 0 0 0 0 1 0 0 0 1 0"/>
<feBlend mode="normal" in2="BackgroundImageFix" result="effect1_dropShadow_558_3161"/>
<feBlend mode="normal" in="SourceGraphic" in2="effect1_dropShadow_558_3161" result="shape"/>
</filter>
<clipPath id="clip0_558_3161">
<rect x="4.66016" y="4.35938" width="64" height="64" rx="32" fill="white"/>
</clipPath>
<clipPath id="clip1_558_3161">
<rect width="64" height="64" fill="white" transform="translate(4.66016 4.35938)"/>
</clipPath>
<clipPath id="clip2_558_3161">
<rect width="64" height="64" fill="white" transform="translate(4.66016 4.35938)"/>
</clipPath>
<clipPath id="clip3_558_3161">
<rect width="64" height="64" fill="white" transform="translate(4.66016 4.35938)"/>
</clipPath>
</defs>
</svg>
