<svg width="24" height="25" viewBox="0 0 24 25" fill="none" xmlns="http://www.w3.org/2000/svg">
<path d="M23.8082 13.1094C23.8082 12.1187 23.7278 11.3957 23.5538 10.646H12.2407V15.1176H18.8812C18.7474 16.2289 18.0245 17.9024 16.4178 19.027L16.3953 19.1767L19.9723 21.9477L20.2201 21.9725C22.4961 19.8705 23.8082 16.7778 23.8082 13.1094Z" fill="#4285F4"/>
<path d="M12.2412 24.8909C15.4945 24.8909 18.2257 23.8198 20.2206 21.9723L16.4184 19.0268C15.4009 19.7364 14.0352 20.2317 12.2412 20.2317C9.05486 20.2317 6.35045 18.1299 5.3864 15.2246L5.2451 15.2366L1.52569 18.1151L1.47705 18.2503C3.45849 22.1864 7.52853 24.8909 12.2412 24.8909Z" fill="#34A853"/>
<path d="M5.386 15.2247C5.13163 14.4749 4.98441 13.6716 4.98441 12.8415C4.98441 12.0114 5.13163 11.2082 5.37262 10.4584L5.36588 10.2987L1.59987 7.37402L1.47665 7.43263C0.660001 9.06602 0.191406 10.9002 0.191406 12.8415C0.191406 14.7828 0.660001 16.617 1.47665 18.2504L5.386 15.2247Z" fill="#FBBC05"/>
<path d="M12.2412 5.45108C14.5038 5.45108 16.0301 6.42841 16.9003 7.24515L20.3009 3.92485C18.2124 1.98355 15.4945 0.791992 12.2412 0.791992C7.52853 0.791992 3.45849 3.4964 1.47705 7.43252L5.37302 10.4583C6.35045 7.55306 9.05486 5.45108 12.2412 5.45108Z" fill="#EB4335"/>
</svg>
