<svg width="25" height="20" viewBox="0 0 25 20" fill="none" xmlns="http://www.w3.org/2000/svg">
<path d="M23.1893 0.00281552C19.4212 -0.00581603 5.52301 0.00871023 2.31068 0.00281552C1.31108 0.00281552 0.5 0.644708 0.5 1.43523V18.568C0.5 19.3587 1.31108 20 2.31068 20H23.1893C24.1894 20 25 19.3587 25 18.5678V1.43523C25 0.644708 24.1894 0.00281552 23.1893 0.00281552ZM7.94569 16.7379H4.27919V7.735H7.94543V12.8339C7.94697 13.7659 7.9449 15.7924 7.94569 16.7379ZM6.11308 6.50616C4.87802 6.51689 4.0605 5.82153 4.06307 4.9508C4.05946 2.89038 8.1765 2.86723 8.18707 4.95101C8.18707 5.81479 7.3912 6.50616 6.11308 6.50616ZM21.1654 16.7379H17.4997V11.9221C17.4997 10.7118 16.9687 9.88636 15.6426 9.88636C14.2811 9.92509 13.6047 10.7872 13.6408 11.711V16.7381L9.9748 16.7383C9.9748 16.7383 10.023 8.58004 9.97506 7.73563H13.6411L13.6166 9.04088C14.0991 8.42636 14.9676 7.52426 16.9451 7.52426C19.357 7.52426 21.1656 8.81099 21.1656 11.5762L21.1654 16.7379Z" fill="black"/>
</svg>
