<svg width="26" height="20" viewBox="0 0 26 20" fill="none" xmlns="http://www.w3.org/2000/svg">
<path d="M13.2509 0C6.20897 0 0.5 4.47716 0.5 9.99908C0.5 14.0948 3.63895 17.6124 8.13234 19.1589C8.09431 18.4601 8.12402 17.6228 8.35224 16.8633C8.59872 16.051 9.99456 11.4133 9.99456 11.4133C9.99456 11.4133 9.5877 10.7748 9.5877 9.83173C9.5877 8.34944 10.6825 7.24293 12.0452 7.24293C13.2062 7.24293 13.7652 7.92655 13.7652 8.74407C13.7652 9.65792 13.0227 11.0264 12.6406 12.2927C12.3214 13.3538 13.3186 14.2193 14.6516 14.2193C17.0679 14.2193 18.6953 11.7849 18.6953 8.90232C18.6953 6.71111 16.8131 5.07053 13.3897 5.07053C9.52149 5.07053 7.11355 7.33243 7.11355 9.85894C7.11355 10.7306 7.43939 11.3445 7.95373 11.8199C8.18863 12.0391 8.22168 12.1273 8.13568 12.3777C8.07447 12.5619 7.93552 13.0049 7.876 13.18C7.79155 13.4336 7.53031 13.5237 7.23764 13.431C5.45654 12.8596 4.62793 11.3309 4.62793 9.61057C4.62793 6.76944 7.68252 3.36379 13.7387 3.36379C18.6074 3.36379 21.8126 6.12577 21.8126 9.09164C21.8126 13.0146 19.0308 15.9458 14.9311 15.9458C13.5551 15.9458 12.2602 15.3614 11.817 14.6986C11.817 14.6986 11.0761 17.0033 10.9207 17.4476C10.6495 18.2181 10.1202 18.9896 9.63725 19.5901C10.7834 19.8554 11.9956 20 13.2509 20C20.2927 20 26 15.5229 26 9.999C26 4.47716 20.2927 0 13.2509 0Z" fill="black"/>
</svg>
