<svg width="23" height="20" viewBox="0 0 23 20" fill="none" xmlns="http://www.w3.org/2000/svg">
<path d="M19.1389 4.00904C17.7495 3.30654 16.7461 2.18284 16.4332 0.872561C16.3657 0.589122 16.3286 0.29779 16.3286 0H11.8929L11.8855 13.7801C11.8105 15.3236 10.173 16.5621 8.16431 16.5621C7.54042 16.5621 6.95263 16.4409 6.43519 16.2299C5.24848 15.7456 4.43576 14.7811 4.43576 13.6718C4.43576 12.0781 6.10842 10.7814 8.16431 10.7814C8.54846 10.7814 8.91596 10.8302 9.26492 10.9149V7.40456C8.90484 7.36653 8.53829 7.34285 8.16431 7.34285C3.66283 7.34285 0 10.1823 0 13.6718C0 15.813 1.38016 17.7081 3.4851 18.8533C4.81157 19.5752 6.42408 20 8.16431 20C12.6658 20 16.3286 17.1613 16.3286 13.6711V6.68341C18.0679 7.65141 20.1997 8.22187 22.5 8.22187V4.7833C21.2614 4.7833 20.1072 4.4977 19.1398 4.00832L19.1389 4.00904Z" fill="black"/>
</svg>
