<svg width="24" height="20" viewBox="0 0 24 20" fill="none" xmlns="http://www.w3.org/2000/svg">
<path d="M0.0538474 0.0627804C0.0988834 0.116592 9.06693 10.9874 9.14721 11.0852L9.1756 11.1194L4.64067 15.5084C2.14705 17.9225 0.0822397 19.9209 0.0528684 19.9486L0 20H1.03681H2.07362L6.0828 16.119C8.28761 13.9845 10.093 12.2381 10.0959 12.2381C10.0988 12.2381 11.542 13.9845 13.3022 16.119L16.5038 20H20.0018H23.5L23.4716 19.9649C23.456 19.9462 21.3177 17.3551 18.7213 14.2071C16.1238 11.0591 13.9983 8.47778 13.9983 8.47044C13.9973 8.46392 15.9603 6.55768 18.3591 4.23563C20.7577 1.91358 22.7226 0.0105991 22.7236 0.00652313C22.7256 0.00326157 22.2625 0 21.6946 0H20.6617L16.8689 3.67061C14.7836 5.68936 13.0732 7.34203 13.0674 7.34285C13.0624 7.34448 11.6947 5.69262 10.0284 3.67305L6.99919 0H3.50008H0.000979045L0.0538474 0.0627804ZM6.60365 2.01142C9.38218 5.32083 20.6481 18.7428 20.6539 18.7501C20.6598 18.7583 20.3406 18.7607 19.0707 18.7607H17.4799L14.1413 14.7843C12.3056 12.5968 9.00917 8.6702 6.81709 6.0587C4.62501 3.44721 2.83139 1.30779 2.83139 1.30371C2.83139 1.29963 3.50008 1.29637 4.41744 1.29637H6.00252L6.60365 2.01142Z" fill="black"/>
</svg>
