<svg width="28" height="20" viewBox="0 0 28 20" fill="none" xmlns="http://www.w3.org/2000/svg">
<path d="M11.8297 0.00505977C8.87088 0.0609279 7.23626 0.125175 5.68956 0.242496C3.80495 0.384958 3.09341 0.51066 2.47527 0.809551C2.11813 0.98274 1.8544 1.1671 1.55495 1.45761C0.824176 2.17272 0.53022 2.91296 0.321429 4.56943C0.288462 4.82362 0.25 5.12531 0.236264 5.23983C0.195055 5.55549 0.104396 6.79574 0.0741758 7.46056C-0.0247253 9.54442 -0.0247253 10.4551 0.0741758 12.5445C0.104396 13.2065 0.195055 14.4496 0.236264 14.7652C0.25 14.8798 0.288462 15.1814 0.321429 15.4356C0.53022 17.0921 0.824176 17.8323 1.55495 18.5474C2.26923 19.243 2.9478 19.4972 4.56319 19.6648C6.71978 19.8911 9.76374 20 14 20C17.6456 20 20.2033 19.9274 22.3104 19.7654C24.2088 19.6173 24.9066 19.4944 25.5247 19.1955C25.8819 19.0223 26.1456 18.838 26.4451 18.5474C27.1758 17.8323 27.4698 17.0921 27.6786 15.4356C27.7115 15.1814 27.75 14.8798 27.7637 14.7652C27.8049 14.4496 27.8956 13.2065 27.9258 12.5445C28.0247 10.4551 28.0247 9.54442 27.9258 7.46056C27.8956 6.79574 27.8049 5.55549 27.7637 5.23983C27.75 5.12531 27.7115 4.82362 27.6786 4.56943C27.4698 2.91296 27.1758 2.17272 26.4451 1.45761C25.956 0.979946 25.4286 0.695023 24.7363 0.535801C23.7527 0.306744 21.467 0.139143 18.0522 0.0441681C17.044 0.016233 12.6978 -0.0117001 11.8297 0.00505977ZM12.022 6.27059C13.0769 6.88234 14.0852 7.46615 17.3462 9.35168C17.9396 9.69247 18.4286 9.98577 18.4286 10.0025C18.4286 10.0165 17.6401 10.4858 16.6758 11.0417C14.4368 12.335 13.9011 12.6451 12.4066 13.511C11.7335 13.9021 11.1758 14.2233 11.1648 14.2289C11.1511 14.2345 11.1429 12.3322 11.1429 10.0025C11.1429 7.67286 11.1511 5.77058 11.1648 5.77616C11.1758 5.77896 11.5604 6.00243 12.022 6.27059Z" fill="black"/>
</svg>
