
<svg width="72" height="72" viewBox="0 0 72 72" fill="none" xmlns="http://www.w3.org/2000/svg">
<rect width="72" height="72" rx="16" fill="#ECEBFF"/>
<path d="M57.1654 46.6483L57.1746 46.6433H57.1565L46.5303 40.8853L35.8863 35.1172L25.242 40.8853L14.6157 46.6433H14.5977L14.6069 46.6483L14.5977 46.6534H14.6157L25.242 52.4114L35.8863 58.1795L46.5303 52.4114L57.1565 46.6534H57.1746L57.1654 46.6483Z" fill="#DCD8FF"/>
<path d="M57.1654 24.5312L57.1746 24.5265H57.1565L46.5303 18.7681L35.8863 13L25.242 18.7681L14.6157 24.5265H14.5977L14.6069 24.5312L14.5977 24.5362H14.6157L25.242 30.2946L35.8863 36.0627L46.5303 30.2946L57.1565 24.5362H57.1746L57.1654 24.5312Z" fill="#4A3AFF"/>
<path d="M14.6172 24.0625V47.1151L35.8878 35.589L14.6172 24.0625Z" fill="#B8B1FF"/>
<path d="M57.1569 24.0625V47.1151L35.8867 35.589L57.1569 24.0625Z" fill="#B8B1FF"/>
</svg>
