<svg width="17" height="17" viewBox="0 0 17 17" fill="none" xmlns="http://www.w3.org/2000/svg">
<mask id="mask0_558_4541" style="mask-type:alpha" maskUnits="userSpaceOnUse" x="0" y="0" width="17" height="17">
<g clip-path="url(#clip0_558_4541)">
<path d="M15.0195 6.39062C15.0198 6.34414 15.0135 6.29784 15.0008 6.25313L14.1039 3.11562C14.0436 2.90744 13.9176 2.72435 13.7447 2.59368C13.5718 2.46301 13.3613 2.39178 13.1445 2.39062H3.89453C3.67781 2.39178 3.46726 2.46301 3.29436 2.59368C3.12144 2.72435 2.99544 2.90744 2.93516 3.11562L2.03891 6.25313C2.02599 6.29781 2.01948 6.34411 2.01953 6.39062V7.39062C2.01953 7.77875 2.10989 8.1615 2.28346 8.50869C2.45703 8.85581 2.70904 9.15775 3.01953 9.39062V13.3906C3.01953 13.6558 3.12489 13.9102 3.31243 14.0977C3.49996 14.2852 3.75431 14.3906 4.01953 14.3906H13.0195C13.2847 14.3906 13.5391 14.2852 13.7267 14.0977C13.9142 13.9102 14.0195 13.6558 14.0195 13.3906V9.39062C14.33 9.15775 14.582 8.85581 14.7556 8.50869C14.9292 8.1615 15.0195 7.77875 15.0195 7.39062V6.39062ZM6.01953 7.39062C6.01944 7.64856 5.95284 7.90212 5.82615 8.12681C5.69946 8.3515 5.51698 8.53975 5.29632 8.67331C5.07566 8.80687 4.82428 8.88131 4.56647 8.88937C4.30866 8.89744 4.05311 8.83887 3.82453 8.71937C3.78975 8.69231 3.75149 8.67 3.71078 8.65312C3.49896 8.5175 3.32463 8.33081 3.20384 8.11019C3.08304 7.88956 3.01966 7.64213 3.01953 7.39062V6.89062H6.01953V7.39062ZM10.0195 7.39062C10.0195 7.78844 9.86147 8.17 9.58022 8.45131C9.29891 8.73256 8.91734 8.89062 8.51953 8.89062C8.12172 8.89062 7.74016 8.73256 7.45884 8.45131C7.17759 8.17 7.01953 7.78844 7.01953 7.39062V6.89062H10.0195V7.39062ZM14.0195 7.39062C14.0193 7.64219 13.9558 7.88969 13.835 8.11031C13.714 8.33094 13.5396 8.51756 13.3277 8.65312C13.2875 8.67006 13.2497 8.69212 13.2152 8.71875C12.9866 8.83838 12.731 8.89706 12.4732 8.88906C12.2153 8.88113 11.9639 8.80675 11.7432 8.67325C11.5225 8.53975 11.3398 8.35156 11.2131 8.12687C11.0863 7.90219 11.0197 7.64862 11.0195 7.39062V6.89062H14.0195V7.39062Z" fill="white"/>
</g>
</mask>
<g mask="url(#mask0_558_4541)">
<rect x="0.519531" y="0.390625" width="16" height="16" fill="white" fill-opacity="0.9"/>
</g>
<defs>
<clipPath id="clip0_558_4541">
<rect width="16" height="16" fill="white" transform="translate(0.519531 0.390625)"/>
</clipPath>
</defs>
</svg>
