<svg width="17" height="17" viewBox="0 0 17 17" fill="none" xmlns="http://www.w3.org/2000/svg">
<mask id="mask0_558_4581" style="mask-type:alpha" maskUnits="userSpaceOnUse" x="0" y="0" width="17" height="17">
<g clip-path="url(#clip0_558_4581)">
<g clip-path="url(#clip1_558_4581)">
<path d="M12.75 3.39062H8.75V1.39062C8.75 1.25802 8.69731 1.13084 8.60356 1.03707C8.50981 0.943303 8.38263 0.890625 8.25 0.890625C8.11737 0.890625 7.99019 0.943303 7.89644 1.03707C7.80269 1.13084 7.75 1.25802 7.75 1.39062V3.39062H3.75C3.21957 3.39062 2.71086 3.60134 2.33579 3.97641C1.96071 4.35148 1.75 4.86019 1.75 5.39062V12.3906C1.75 12.9211 1.96071 13.4297 2.33579 13.8048C2.71086 14.1799 3.21957 14.3906 3.75 14.3906H12.75C13.2804 14.3906 13.7891 14.1799 14.1642 13.8048C14.5393 13.4297 14.75 12.9211 14.75 12.3906V5.39062C14.75 4.86019 14.5393 4.35148 14.1642 3.97641C13.7891 3.60134 13.2804 3.39062 12.75 3.39062ZM11 6.39062C11.1483 6.39062 11.2933 6.43461 11.4167 6.51702C11.54 6.59943 11.6361 6.71656 11.6929 6.85362C11.7497 6.99069 11.7645 7.14144 11.7356 7.28694C11.7066 7.43244 11.6353 7.56606 11.5303 7.67094C11.4254 7.77588 11.2918 7.84725 11.1463 7.87619C11.0008 7.90512 10.8501 7.89031 10.713 7.83356C10.5759 7.77675 10.4588 7.68062 10.3764 7.55731C10.294 7.43394 10.25 7.28894 10.25 7.14062C10.25 6.94169 10.329 6.75094 10.4697 6.61029C10.6103 6.46964 10.8011 6.39062 11 6.39062ZM6.25 11.8906H5.25C4.98478 11.8906 4.73043 11.7852 4.54289 11.5977C4.35536 11.4102 4.25 11.1558 4.25 10.8906C4.25 10.6254 4.35536 10.3711 4.54289 10.1835C4.73043 9.996 4.98478 9.89062 5.25 9.89062H6.25V11.8906ZM5.5 7.89062C5.35166 7.89062 5.20666 7.84662 5.08332 7.76425C4.95999 7.68181 4.86386 7.56469 4.80709 7.42763C4.75032 7.29056 4.73547 7.13981 4.76441 6.99431C4.79335 6.84881 4.86478 6.71519 4.96967 6.61029C5.07456 6.50541 5.20819 6.43397 5.35368 6.40504C5.49917 6.3761 5.64997 6.39095 5.78701 6.44771C5.92406 6.50448 6.04119 6.60061 6.1236 6.72394C6.20601 6.84731 6.25 6.99231 6.25 7.14062C6.25 7.33956 6.17098 7.53031 6.03033 7.67094C5.88967 7.81163 5.69891 7.89062 5.5 7.89062ZM9.25 11.8906H7.25V9.89062H9.25V11.8906ZM11.25 11.8906H10.25V9.89062H11.25C11.5152 9.89062 11.7696 9.996 11.9571 10.1835C12.1446 10.3711 12.25 10.6254 12.25 10.8906C12.25 11.1558 12.1446 11.4102 11.9571 11.5977C11.7696 11.7852 11.5152 11.8906 11.25 11.8906Z" fill="white"/>
</g>
</g>
</mask>
<g mask="url(#mask0_558_4581)">
<rect x="0.25" y="0.390625" width="16" height="16" fill="white" fill-opacity="0.9"/>
</g>
<defs>
<clipPath id="clip0_558_4581">
<rect width="16" height="16" fill="white" transform="translate(0.25 0.390625)"/>
</clipPath>
<clipPath id="clip1_558_4581">
<rect width="16" height="16" fill="white" transform="translate(0.25 0.390625)"/>
</clipPath>
</defs>
</svg>
