<svg width="17" height="17" viewBox="0 0 17 17" fill="none" xmlns="http://www.w3.org/2000/svg">
<mask id="mask0_558_4573" style="mask-type:alpha" maskUnits="userSpaceOnUse" x="0" y="0" width="17" height="17">
<g clip-path="url(#clip0_558_4573)">
<path d="M14.7672 5.9761L10.4747 1.6836C10.3818 1.59072 10.2715 1.51704 10.1502 1.46677C10.0288 1.4165 9.89878 1.39062 9.76746 1.39062C9.63615 1.39062 9.50609 1.4165 9.38471 1.46677C9.2634 1.51704 9.15315 1.59072 9.06028 1.6836L7.28278 3.4611L3.65778 4.8211C3.49306 4.88239 3.3474 4.98601 3.23548 5.12152C3.12356 5.25703 3.04934 5.41964 3.02028 5.59298L1.72215 13.3805C1.71345 13.4327 1.72154 13.4864 1.74528 13.5337C1.76901 13.581 1.80714 13.6195 1.8542 13.6438C1.90125 13.668 1.95479 13.6767 2.0071 13.6686C2.05941 13.6605 2.10779 13.636 2.14528 13.5986L5.70778 10.0361C5.5949 9.80129 5.54556 9.54098 5.56465 9.2811C5.58789 8.96141 5.71292 8.6576 5.92141 8.41416C6.12989 8.17073 6.4109 8.00047 6.72321 7.92835C7.03546 7.85623 7.36265 7.88604 7.65678 8.01341C7.9509 8.14079 8.19653 8.35897 8.35759 8.6361C8.51865 8.91322 8.58671 9.23466 8.55178 9.55329C8.51684 9.87191 8.38077 10.1709 8.16353 10.4066C7.94628 10.6422 7.65928 10.8021 7.34453 10.8628C7.02978 10.9234 6.7039 10.8817 6.41465 10.7436L2.85215 14.3061C2.81477 14.3436 2.79026 14.392 2.78214 14.4443C2.77402 14.4966 2.78271 14.5501 2.80697 14.5972C2.83123 14.6442 2.86979 14.6823 2.91711 14.7061C2.96443 14.7298 3.01806 14.7379 3.07028 14.7292L10.8584 13.4311C11.0315 13.4023 11.1939 13.3284 11.3293 13.217C11.4648 13.1055 11.5687 12.9604 11.6303 12.7961L12.9909 9.16673L14.7672 7.3911C14.86 7.29822 14.9337 7.18797 14.984 7.06666C15.0343 6.94529 15.0602 6.81522 15.0602 6.68391C15.0602 6.55257 15.0343 6.42252 14.984 6.30118C14.9337 6.17984 14.86 6.06959 14.7672 5.97673V5.9761ZM12.5603 8.1836L8.26778 3.8911L9.76778 2.3911L14.0603 6.6836L12.5603 8.1836Z" fill="white"/>
</g>
</mask>
<g mask="url(#mask0_558_4573)">
<rect x="0.0585938" y="0.390625" width="16" height="16" fill="white" fill-opacity="0.9"/>
</g>
<defs>
<clipPath id="clip0_558_4573">
<rect width="16" height="16" fill="white" transform="translate(0.0585938 0.390625)"/>
</clipPath>
</defs>
</svg>
