<svg width="17" height="17" viewBox="0 0 17 17" fill="none" xmlns="http://www.w3.org/2000/svg">
<mask id="mask0_558_4517" style="mask-type:alpha" maskUnits="userSpaceOnUse" x="0" y="0" width="17" height="17">
<g clip-path="url(#clip0_558_4517)">
<g clip-path="url(#clip1_558_4517)">
<path d="M15.5741 13.3889H14.5909V6.38887C14.5909 6.12365 14.4856 5.8693 14.2981 5.68176C14.1105 5.49422 13.8561 5.38887 13.5909 5.38887H10.8409C10.7746 5.38887 10.7111 5.4152 10.6642 5.46209C10.6173 5.50897 10.5909 5.57256 10.5909 5.63887V13.3889H9.59094V2.41449C9.59257 2.25873 9.55882 2.10464 9.49207 1.96387C9.42538 1.8231 9.32757 1.69935 9.20594 1.60199C9.04019 1.47277 8.83794 1.39905 8.62794 1.3913C8.41788 1.38356 8.21075 1.44219 8.03594 1.55887L3.03594 4.88887C2.89878 4.98038 2.78637 5.10439 2.70874 5.24985C2.63109 5.39532 2.59063 5.55773 2.59094 5.72262V13.3889H1.60782C1.47861 13.3869 1.35347 13.4341 1.25757 13.5207C1.16168 13.6073 1.10214 13.727 1.09094 13.8557C1.0864 13.9241 1.09597 13.9927 1.11906 14.0572C1.14214 14.1218 1.17825 14.1809 1.22514 14.2309C1.27203 14.2809 1.3287 14.3207 1.39163 14.3479C1.45455 14.3751 1.5224 14.389 1.59094 14.3889H15.5909C15.6595 14.389 15.7273 14.3751 15.7903 14.3479C15.8532 14.3207 15.9099 14.2809 15.9568 14.2309C16.0036 14.1809 16.0398 14.1218 16.0628 14.0572C16.0859 13.9927 16.0955 13.9241 16.0909 13.8557C16.0798 13.727 16.0202 13.6073 15.9243 13.5207C15.8284 13.4341 15.7033 13.3869 15.5741 13.3889ZM5.34094 11.8889C5.34109 11.9574 5.32715 12.0252 5.29997 12.0882C5.2728 12.1511 5.23298 12.2078 5.18299 12.2547C5.13299 12.3016 5.07389 12.3377 5.00935 12.3607C4.94481 12.3839 4.87621 12.3934 4.80782 12.3889C4.67897 12.3777 4.55916 12.3181 4.47253 12.222C4.38589 12.126 4.33887 12.0007 4.34094 11.8714V10.9057C4.33918 10.7766 4.38632 10.6515 4.47291 10.5557C4.5595 10.4598 4.67914 10.4002 4.80782 10.3889C4.87621 10.3843 4.94481 10.3939 5.00935 10.417C5.07389 10.4401 5.13299 10.4762 5.18299 10.5231C5.23298 10.5699 5.2728 10.6266 5.29997 10.6896C5.32715 10.7525 5.34109 10.8203 5.34094 10.8889V11.8889ZM5.34094 8.38887C5.34109 8.45743 5.32715 8.52524 5.29997 8.58818C5.2728 8.65112 5.23298 8.7078 5.18299 8.75468C5.13299 8.80155 5.07389 8.83768 5.00935 8.86074C4.94481 8.88387 4.87621 8.89343 4.80782 8.88887C4.67903 8.87749 4.5593 8.81787 4.4727 8.72187C4.38609 8.62587 4.33902 8.50062 4.34094 8.37137V7.40574C4.33918 7.27655 4.38632 7.15149 4.47291 7.05568C4.5595 6.9598 4.67914 6.90024 4.80782 6.88887C4.87621 6.8843 4.94481 6.89387 5.00935 6.91699C5.07389 6.94005 5.13299 6.97618 5.18299 7.02305C5.23298 7.06993 5.2728 7.12662 5.29997 7.18955C5.32715 7.25249 5.34109 7.3203 5.34094 7.38887V8.38887ZM7.84094 11.8889C7.84107 11.9574 7.82713 12.0252 7.8 12.0882C7.77282 12.1511 7.73301 12.2078 7.683 12.2547C7.633 12.3016 7.57388 12.3377 7.50932 12.3607C7.44482 12.3839 7.37619 12.3934 7.30782 12.3889C7.17919 12.3777 7.05957 12.3182 6.97294 12.2225C6.88638 12.1267 6.83919 12.0017 6.84094 11.8726V10.9057C6.83934 10.7767 6.88657 10.6518 6.97313 10.5561C7.05969 10.4603 7.17926 10.4008 7.30782 10.3895C7.37619 10.3849 7.44482 10.3945 7.50932 10.4176C7.57388 10.4407 7.633 10.4768 7.683 10.5237C7.73301 10.5706 7.77282 10.6272 7.8 10.6902C7.82713 10.7531 7.84107 10.8209 7.84094 10.8895V11.8889ZM7.84094 8.38887C7.84107 8.45743 7.82713 8.52524 7.8 8.58818C7.77282 8.65112 7.73301 8.7078 7.683 8.75468C7.633 8.80155 7.57388 8.83768 7.50932 8.86074C7.44482 8.88387 7.37619 8.89343 7.30782 8.88887C7.17926 8.87755 7.05969 8.81805 6.97313 8.7223C6.88657 8.62655 6.83934 8.50168 6.84094 8.37262V7.40574C6.83934 7.27668 6.88657 7.1518 6.97313 7.05605C7.05969 6.9603 7.17926 6.9008 7.30782 6.88949C7.37619 6.88493 7.44482 6.89449 7.50932 6.91762C7.57388 6.94068 7.633 6.9768 7.683 7.02368C7.73301 7.07055 7.77282 7.12724 7.8 7.19018C7.82713 7.25312 7.84107 7.32093 7.84094 7.38949V8.38887Z" fill="white"/>
</g>
</g>
</mask>
<g mask="url(#mask0_558_4517)">
<rect x="0.589844" y="0.390625" width="16" height="16" fill="white" fill-opacity="0.9"/>
</g>
<defs>
<clipPath id="clip0_558_4517">
<rect width="16" height="16" fill="white" transform="translate(0.589844 0.390625)"/>
</clipPath>
<clipPath id="clip1_558_4517">
<rect width="16" height="16" fill="white" transform="translate(0.589844 0.390625)"/>
</clipPath>
</defs>
</svg>
