<svg width="17" height="17" viewBox="0 0 17 17" fill="none" xmlns="http://www.w3.org/2000/svg">
<mask id="mask0_558_4549" style="mask-type:alpha" maskUnits="userSpaceOnUse" x="0" y="0" width="17" height="17">
<g clip-path="url(#clip0_558_4549)">
<path d="M15.7305 13.8905C15.7305 14.0231 15.6778 14.1503 15.584 14.2441C15.4903 14.3378 15.3631 14.3905 15.2305 14.3905H6.23047C6.09786 14.3905 5.97068 14.3378 5.87691 14.2441C5.78315 14.1503 5.73047 14.0231 5.73047 13.8905C5.73047 13.7579 5.78315 13.6307 5.87691 13.5369C5.97068 13.4432 6.09786 13.3905 6.23047 13.3905H15.2305C15.3631 13.3905 15.4903 13.4432 15.584 13.5369C15.6778 13.6307 15.7305 13.7579 15.7305 13.8905ZM14.2305 12.3905C14.3631 12.3905 14.4903 12.3378 14.584 12.2441C14.6778 12.1503 14.7305 12.0231 14.7305 11.8905V9.66049C14.7292 9.11456 14.5498 8.58393 14.2195 8.14918C13.8892 7.71443 13.4261 7.39937 12.9005 7.25174L9.09797 6.18924L7.69172 2.83737C7.66416 2.77158 7.62291 2.71245 7.57059 2.66394C7.51828 2.61543 7.45628 2.57867 7.38859 2.55612L7.04672 2.44237C6.89647 2.39227 6.73641 2.37859 6.57984 2.40245C6.42321 2.42632 6.27453 2.48705 6.14599 2.57963C6.01746 2.67222 5.91276 2.79402 5.84052 2.93499C5.76828 3.07597 5.73056 3.23209 5.73047 3.39049V5.22737L3.86359 4.69549L3.20047 2.85987C3.17476 2.78882 3.13329 2.72452 3.07916 2.6718C3.02504 2.61909 2.95967 2.57932 2.88797 2.55549L2.54609 2.44174C2.3958 2.39175 2.23579 2.37817 2.07922 2.40213C1.92266 2.42609 1.77402 2.48689 1.64556 2.57953C1.51709 2.67217 1.41246 2.79401 1.3403 2.935C1.26813 3.07599 1.23049 3.2321 1.23047 3.39049V6.87299C1.23167 7.41818 1.41053 7.94818 1.73996 8.38256C2.06939 8.81699 2.53143 9.13224 3.05609 9.28049L14.0955 12.3717C14.1394 12.3841 14.1848 12.3904 14.2305 12.3905Z" fill="white"/>
</g>
</mask>
<g mask="url(#mask0_558_4549)">
<rect x="0.230469" y="0.390625" width="16" height="16" fill="white" fill-opacity="0.9"/>
</g>
<defs>
<clipPath id="clip0_558_4549">
<rect width="16" height="16" fill="white" transform="translate(0.230469 0.390625)"/>
</clipPath>
</defs>
</svg>
