<svg width="17" height="17" viewBox="0 0 17 17" fill="none" xmlns="http://www.w3.org/2000/svg">
<mask id="mask0_558_4533" style="mask-type:alpha" maskUnits="userSpaceOnUse" x="0" y="0" width="17" height="17">
<g clip-path="url(#clip0_558_4533)">
<path d="M12.0753 2.26143C12.0923 2.19797 12.1217 2.13849 12.1616 2.08636C12.2016 2.03424 12.2514 1.9905 12.3083 1.95765C12.3652 1.9248 12.428 1.90347 12.4931 1.8949C12.5582 1.88633 12.6244 1.89067 12.6878 1.90768C13.6816 2.17455 14.5003 2.78955 14.9916 3.6408C15.0579 3.75568 15.0758 3.89219 15.0415 4.02029C15.0072 4.1484 14.9233 4.25762 14.8085 4.32393C14.6936 4.39024 14.5571 4.40819 14.429 4.37385C14.3008 4.3395 14.1917 4.25568 14.1253 4.1408C13.7678 3.5208 13.1653 3.0708 12.4291 2.87393C12.3657 2.85695 12.3062 2.82765 12.254 2.78767C12.2019 2.7477 12.1582 2.69785 12.1253 2.64097C12.0925 2.58409 12.0712 2.5213 12.0626 2.45617C12.054 2.39105 12.0583 2.32487 12.0753 2.26143ZM5.53223 14.4983C4.94598 14.0358 4.45598 13.4458 3.9916 12.6408C3.95877 12.5839 3.91506 12.5341 3.86296 12.4941C3.81086 12.4541 3.7514 12.4247 3.68796 12.4077C3.62453 12.3907 3.55837 12.3864 3.49325 12.395C3.42814 12.4036 3.36535 12.4249 3.30848 12.4577C3.2516 12.4905 3.20174 12.5342 3.16176 12.5863C3.12177 12.6384 3.09244 12.6979 3.07543 12.7613C3.05843 12.8247 3.05408 12.8909 3.06265 12.9561C3.07121 13.0211 3.09252 13.0839 3.12535 13.1408C3.65598 14.0596 4.22348 14.7402 4.91285 15.2833C5.01711 15.3635 5.14879 15.3994 5.27933 15.3832C5.40988 15.367 5.52878 15.3 5.61026 15.1967C5.69175 15.0934 5.72925 14.9622 5.71465 14.8315C5.70003 14.7007 5.6345 14.5811 5.53223 14.4983ZM12.8203 4.04205C12.7556 3.92662 12.6685 3.8252 12.5643 3.74365C12.46 3.66212 12.3406 3.60209 12.213 3.56705C12.0853 3.532 11.952 3.52265 11.8207 3.53953C11.6895 3.55641 11.5628 3.59918 11.4482 3.66537C11.3336 3.73155 11.2332 3.81984 11.153 3.92509C11.0727 4.03035 11.0142 4.1505 10.9807 4.27855C10.9473 4.40662 10.9395 4.54005 10.958 4.67111C10.9765 4.80217 11.0209 4.92825 11.0885 5.04205L12.0885 6.77393C12.1213 6.8308 12.1427 6.89362 12.1512 6.95868C12.1598 7.0238 12.1554 7.08999 12.1384 7.15343C12.1214 7.21687 12.0921 7.2763 12.0521 7.32843C12.0121 7.38055 11.9622 7.42424 11.9053 7.45705C11.446 7.7223 11.1109 8.15912 10.9737 8.67143C10.8364 9.18374 10.9083 9.72962 11.1735 10.1889C11.2398 10.3038 11.2577 10.4403 11.2234 10.5684C11.189 10.6966 11.1052 10.8057 10.9903 10.8721C10.8755 10.9384 10.739 10.9563 10.6108 10.922C10.4827 10.8876 10.3735 10.8038 10.3072 10.6889C9.9536 10.0745 9.8286 9.35474 9.95441 8.65705C10.0802 7.95937 10.4487 7.32862 10.9947 6.87643L8.47285 2.5108C8.34022 2.28106 8.12178 2.1134 7.8656 2.04472C7.60935 1.97604 7.33635 2.01195 7.1066 2.14455C6.87684 2.27716 6.7092 2.4956 6.64051 2.75183C6.57183 3.00805 6.60774 3.28106 6.74035 3.5108L8.74035 6.97518C8.80253 7.08974 8.81753 7.22399 8.78222 7.34943C8.74685 7.47487 8.66391 7.58155 8.55103 7.64674C8.43816 7.71193 8.30435 7.73049 8.17803 7.69843C8.05166 7.66637 7.94284 7.5863 7.87472 7.47518L5.37473 3.14455C5.24211 2.91481 5.02368 2.74715 4.76745 2.67847C4.51123 2.60979 4.23822 2.6457 4.00848 2.7783C3.77873 2.91091 3.61108 3.12935 3.54239 3.38558C3.4737 3.6418 3.50961 3.91481 3.64223 4.14455L6.39223 8.90768C6.42713 8.96462 6.45028 9.02793 6.46032 9.09393C6.47035 9.15993 6.46706 9.2273 6.45065 9.29199C6.43423 9.35674 6.40501 9.41749 6.36473 9.47074C6.32445 9.52399 6.2739 9.56862 6.21608 9.60206C6.15826 9.63543 6.09435 9.65693 6.0281 9.66518C5.96185 9.67349 5.8946 9.66843 5.83033 9.6503C5.76607 9.63218 5.70609 9.60143 5.65392 9.55974C5.60175 9.51805 5.55846 9.46637 5.5266 9.40768L3.7766 6.37705C3.71094 6.2633 3.62351 6.16359 3.51932 6.08362C3.41512 6.00364 3.2962 5.94498 3.16933 5.91097C3.04246 5.87696 2.91013 5.86827 2.77991 5.8854C2.64968 5.90253 2.52411 5.94514 2.41035 6.0108C2.29659 6.07647 2.19688 6.16389 2.11691 6.26809C2.03694 6.37228 1.97828 6.49121 1.94426 6.61808C1.91026 6.74493 1.90157 6.87724 1.9187 7.00749C1.93583 7.13774 1.97844 7.2633 2.0441 7.37705L4.7941 12.1402C5.52513 13.4001 6.72611 14.3186 8.13353 14.6941C9.54091 15.0696 11.0398 14.8714 12.3013 14.1431C13.5628 13.4147 14.4838 12.2157 14.8623 10.8091C15.2409 9.40255 15.046 7.90324 14.3203 6.64018L12.8203 4.04205Z" fill="white"/>
</g>
</mask>
<g mask="url(#mask0_558_4533)">
<rect x="0.558594" y="0.390625" width="16" height="16" fill="white" fill-opacity="0.9"/>
</g>
<defs>
<clipPath id="clip0_558_4533">
<rect width="16" height="16" fill="white" transform="translate(0.558594 0.390625)"/>
</clipPath>
</defs>
</svg>
