<svg width="17" height="17" viewBox="0 0 17 17" fill="none" xmlns="http://www.w3.org/2000/svg">
<mask id="mask0_558_4525" style="mask-type:alpha" maskUnits="userSpaceOnUse" x="0" y="0" width="17" height="17">
<g clip-path="url(#clip0_558_4525)">
<path d="M14.4688 4.89062H9.13562L7.40125 3.59063C7.2285 3.46106 7.01844 3.39089 6.8025 3.39062H3.46875C3.20353 3.39062 2.94918 3.49598 2.76164 3.68352C2.57411 3.87106 2.46875 4.12541 2.46875 4.39062V12.8906C2.46875 13.1558 2.57411 13.4102 2.76164 13.5977C2.94918 13.7852 3.20353 13.8906 3.46875 13.8906H14.5244C14.7747 13.8903 15.0148 13.7907 15.1918 13.6137C15.3688 13.4366 15.4684 13.1966 15.4688 12.9462V5.89062C15.4688 5.62541 15.3634 5.37106 15.1759 5.18352C14.9883 4.99598 14.7339 4.89062 14.4688 4.89062Z" fill="white"/>
</g>
</mask>
<g mask="url(#mask0_558_4525)">
<rect x="0.96875" y="0.390625" width="16" height="16" fill="white" fill-opacity="0.9"/>
</g>
<defs>
<clipPath id="clip0_558_4525">
<rect width="16" height="16" fill="white" transform="translate(0.96875 0.390625)"/>
</clipPath>
</defs>
</svg>
