<svg width="17" height="17" viewBox="0 0 17 17" fill="none" xmlns="http://www.w3.org/2000/svg">
<mask id="mask0_558_4565" style="mask-type:alpha" maskUnits="userSpaceOnUse" x="0" y="0" width="17" height="17">
<g clip-path="url(#clip0_558_4565)">
<path d="M13.8789 2.89062H2.87891C2.61369 2.89062 2.35934 2.99598 2.1718 3.18352C1.98426 3.37106 1.87891 3.62541 1.87891 3.89062V12.8906C1.87891 13.1558 1.98426 13.4102 2.1718 13.5977C2.35934 13.7852 2.61369 13.8906 2.87891 13.8906H13.8789C14.1441 13.8906 14.3985 13.7852 14.586 13.5977C14.7735 13.4102 14.8789 13.1558 14.8789 12.8906V3.89062C14.8789 3.62541 14.7735 3.37106 14.586 3.18352C14.3985 2.99598 14.1441 2.89062 13.8789 2.89062ZM4.62891 6.39062C4.48057 6.39062 4.33556 6.34664 4.21223 6.26423C4.08889 6.18182 3.99276 6.06468 3.93599 5.92764C3.87923 5.79059 3.86438 5.63979 3.89332 5.49431C3.92226 5.34882 3.99369 5.21518 4.09858 5.11029C4.20346 5.00541 4.3371 4.93397 4.48259 4.90504C4.62807 4.8761 4.77888 4.89095 4.91592 4.94771C5.05296 5.00448 5.1701 5.10061 5.25251 5.22395C5.33492 5.34729 5.37891 5.49229 5.37891 5.64062C5.37891 5.83954 5.29989 6.0303 5.15924 6.17096C5.01858 6.31161 4.82782 6.39062 4.62891 6.39062ZM7.12891 6.39062C6.98059 6.39062 6.83559 6.34664 6.71222 6.26423C6.58889 6.18182 6.49276 6.06468 6.43599 5.92764C6.37923 5.79059 6.36438 5.63979 6.39332 5.49431C6.42226 5.34882 6.49369 5.21518 6.59858 5.11029C6.70347 5.00541 6.83709 4.93397 6.98259 4.90504C7.12809 4.8761 7.27884 4.89095 7.41591 4.94771C7.55297 5.00448 7.67009 5.10061 7.75253 5.22395C7.83491 5.34729 7.87891 5.49229 7.87891 5.64062C7.87891 5.83954 7.79991 6.0303 7.65922 6.17096C7.51859 6.31161 7.32784 6.39062 7.12891 6.39062Z" fill="white"/>
</g>
</mask>
<g mask="url(#mask0_558_4565)">
<rect x="0.378906" y="0.390625" width="16" height="16" fill="white" fill-opacity="0.9"/>
</g>
<defs>
<clipPath id="clip0_558_4565">
<rect width="16" height="16" fill="white" transform="translate(0.378906 0.390625)"/>
</clipPath>
</defs>
</svg>
