<svg width="17" height="17" viewBox="0 0 17 17" fill="none" xmlns="http://www.w3.org/2000/svg">
<mask id="mask0_558_4557" style="mask-type:alpha" maskUnits="userSpaceOnUse" x="0" y="0" width="17" height="17">
<g clip-path="url(#clip0_558_4557)">
<path d="M6.68533 12.0111C6.66096 12.108 6.05158 14.3898 2.6997 14.3898C2.56709 14.3898 2.43991 14.3372 2.34614 14.2434C2.25238 14.1497 2.1997 14.0225 2.1997 13.8898C2.1997 10.538 4.48158 9.92859 4.57845 9.90421C4.70716 9.87203 4.84338 9.89234 4.95713 9.96065C5.07088 10.0289 5.15286 10.1396 5.18501 10.2683C5.21717 10.397 5.19688 10.5332 5.12861 10.647C5.06033 10.7607 4.94966 10.8427 4.82095 10.8748C4.7647 10.8905 3.4197 11.2836 3.22345 13.3661C5.30595 13.1698 5.6997 11.8273 5.71595 11.7648C5.7491 11.6363 5.83196 11.5262 5.9463 11.4587C6.06064 11.3913 6.19709 11.372 6.32564 11.4052C6.45421 11.4383 6.56427 11.5212 6.63177 11.6355C6.69921 11.7498 6.71846 11.8863 6.68533 12.0148V12.0111ZM12.4978 7.79859L12.1997 8.09671V11.7423C12.2005 11.8742 12.175 12.0048 12.1248 12.1267C12.0745 12.2486 12.0006 12.3593 11.9072 12.4523L9.76221 14.5961C9.66971 14.6893 9.55965 14.7632 9.43846 14.8136C9.31721 14.864 9.18721 14.8899 9.05596 14.8898C8.94758 14.8898 8.83996 14.8723 8.73721 14.838C8.56077 14.7796 8.40414 14.673 8.28508 14.5303C8.16602 14.3877 8.08927 14.2145 8.06346 14.0305L7.72783 11.6248L4.9647 8.86172L2.56033 8.52609C2.37604 8.50021 2.20262 8.42347 2.05958 8.30447C1.91654 8.1854 1.80954 8.02884 1.75064 7.85234C1.69174 7.67578 1.68325 7.48634 1.72615 7.30528C1.76904 7.12422 1.86162 6.95865 1.99345 6.82734L4.1372 4.68234C4.23025 4.58895 4.34094 4.515 4.46283 4.46479C4.58472 4.41457 4.71538 4.3891 4.8472 4.38984H8.49283L8.79096 4.09172C10.4585 2.42484 12.4672 2.35297 13.2541 2.39984C13.4979 2.41466 13.7278 2.51818 13.9005 2.69089C14.0732 2.8636 14.1768 3.09355 14.1916 3.33734C14.2372 4.12172 14.1653 6.13109 12.4985 7.79859H12.4978ZM7.49283 5.38984H4.8472L2.6997 7.53609L5.02158 7.85984L7.49283 5.38984ZM11.1997 9.09671L8.72908 11.5673L9.05408 13.8898L11.1997 11.7423V9.09671Z" fill="white"/>
</g>
</mask>
<g mask="url(#mask0_558_4557)">
<rect x="0.199219" y="0.390625" width="16" height="16" fill="white" fill-opacity="0.9"/>
</g>
<defs>
<clipPath id="clip0_558_4557">
<rect width="16" height="16" fill="white" transform="translate(0.199219 0.390625)"/>
</clipPath>
</defs>
</svg>
